<svg xmlns="http://www.w3.org/2000/svg" width="360" height="330" viewBox="0 0 360 330">
<g>
<path d="M 219.24 117.98 C208.21,119.25 198.94,119.25 197.00,118.00 C196.18,117.47 193.22,117.02 190.43,117.02 C179.64,116.98 170.00,111.99 170.00,106.44 C170.00,102.75 178.96,88.14 187.30,78.22 C203.47,59.00 223.19,45.57 242.71,40.49 C253.62,37.64 261.81,38.81 266.39,43.87 C271.74,49.79 262.50,80.90 249.73,100.00 C241.54,112.24 234.83,116.20 219.24,117.98 ZM 176.14 230.30 C172.01,233.52 171.04,233.61 167.78,231.04 C165.78,229.47 165.04,227.54 164.04,221.37 C163.36,217.12 162.34,212.65 161.78,211.41 C161.22,210.18 156.66,205.88 151.65,201.84 C139.45,192.01 129.28,182.32 126.38,177.77 C123.38,173.07 123.24,167.24 126.03,163.68 C127.15,162.26 133.37,155.91 139.84,149.57 C151.49,138.17 155.75,132.96 162.65,121.71 C165.55,116.99 166.46,116.14 167.61,117.09 C170.26,119.29 173.75,128.81 180.42,152.00 C182.79,160.23 187.69,183.39 189.03,192.70 C190.12,200.21 190.04,201.47 188.10,207.63 C184.79,218.20 179.98,227.31 176.14,230.30 ZM 249.71 249.55 C245.68,252.29 245.36,252.39 244.55,251.07 C244.23,250.57 245.58,248.64 247.54,246.79 C250.04,244.43 250.90,242.91 250.43,241.68 C249.82,240.09 249.49,240.15 246.63,242.33 C238.63,248.43 235.62,250.00 231.88,250.00 C228.89,250.00 227.68,249.45 226.41,247.50 C225.51,246.12 224.19,245.00 223.49,245.00 C221.45,245.00 220.81,241.87 222.48,240.03 C223.31,239.10 224.00,237.80 224.00,237.13 C224.00,234.80 227.97,228.17 230.61,226.09 C233.56,223.77 237.48,223.34 238.64,225.22 C240.27,227.87 238.84,232.56 235.01,237.10 C232.85,239.66 231.37,242.03 231.71,242.38 C233.13,243.80 237.59,242.81 242.56,239.97 C247.65,237.05 247.84,236.79 247.30,233.47 C246.36,227.64 251.07,224.42 253.03,229.57 L 254.00 232.13 L 258.35 228.57 C263.61,224.26 267.66,223.81 268.57,227.43 C269.49,231.10 268.36,233.41 263.43,237.96 C260.96,240.23 259.23,242.57 259.59,243.14 C260.24,244.20 264.05,243.91 267.17,242.56 C268.32,242.07 269.19,242.49 269.94,243.90 C270.93,245.74 270.54,246.20 266.05,248.47 C260.06,251.51 259.00,251.57 255.79,249.05 C253.32,247.11 253.31,247.11 249.71,249.55 ZM 164.00 170.99 C166.48,171.38 169.10,171.53 169.83,171.34 C170.56,171.16 172.48,171.00 174.08,171.00 C176.32,171.00 177.00,170.54 177.00,169.02 C177.00,167.21 176.44,167.08 170.27,167.45 C166.58,167.67 163.39,168.33 163.19,168.93 C162.99,169.52 162.08,170.07 161.17,170.15 C160.25,170.23 161.52,170.61 164.00,170.99 ZM 163.75 161.97 C162.06,162.65 163.19,162.89 168.25,162.94 C174.35,162.99 175.00,162.81 175.00,161.00 C175.00,159.30 174.33,159.00 170.50,159.00 C168.02,159.00 166.00,159.46 166.00,160.03 C166.00,160.60 164.99,161.47 163.75,161.97 ZM 255.48 236.97 C256.40,238.45 256.63,238.32 259.00,235.00 C261.43,231.59 260.61,231.14 257.17,234.01 C255.89,235.07 255.13,236.41 255.48,236.97 ZM 170.52 152.98 C168.65,155.04 169.15,155.39 172.21,154.18 C173.29,153.75 173.63,153.02 173.14,152.23 C172.54,151.26 171.92,151.44 170.52,152.98 ZM 47.00 274.94 C47.00,276.07 46.55,277.00 46.00,277.00 C45.45,277.00 45.00,276.35 45.00,275.56 C45.00,274.77 45.45,273.84 46.00,273.50 C46.55,273.16 47.00,273.81 47.00,274.94 ZM 231.00 283.00 C231.00,283.55 230.55,284.00 230.00,284.00 C229.45,284.00 229.00,283.55 229.00,283.00 C229.00,282.45 229.45,282.00 230.00,282.00 C230.55,282.00 231.00,282.45 231.00,283.00 Z" fill="rgb(35,128,138)"/>
<path d="M 244.78 205.44 C240.71,208.29 233.52,206.92 222.50,201.21 C213.80,196.70 211.52,194.96 207.63,189.87 C195.84,174.43 171.00,124.96 171.00,116.92 C171.00,114.43 171.75,114.48 184.50,117.92 C190.13,119.44 198.60,120.47 213.10,121.40 C240.49,123.14 242.01,124.02 242.79,138.50 C243.10,144.23 242.48,150.83 240.61,161.74 C239.18,170.12 238.00,178.24 238.00,179.78 C238.00,181.33 240.01,185.93 242.48,190.05 C247.62,198.58 248.28,202.99 244.78,205.44 ZM 298.29 260.58 C294.08,263.77 293.04,260.92 294.90,251.28 C295.35,248.95 295.51,246.84 295.25,246.59 C294.99,246.33 293.02,247.28 290.87,248.71 C288.50,250.27 285.01,251.48 282.05,251.77 C277.81,252.18 276.81,251.90 274.65,249.75 C269.86,244.95 270.26,231.34 275.50,220.99 C279.74,212.63 289.91,205.00 296.83,205.00 C302.59,205.00 310.31,214.68 308.00,219.00 C305.72,223.27 300.06,222.48 300.02,217.88 C299.99,215.43 296.10,211.00 293.96,211.00 C286.22,211.00 275.99,233.99 280.22,241.90 C283.40,247.86 288.95,246.57 295.04,238.45 C298.52,233.80 303.53,231.63 305.06,234.10 C306.62,236.62 301.03,258.50 298.29,260.58 ZM 167.98 110.25 C169.57,115.02 168.26,113.26 164.64,105.75 C156.96,89.86 141.20,75.57 119.14,64.50 C114.96,62.41 112.04,60.27 111.73,59.08 C111.09,56.63 111.70,56.00 114.71,56.00 C123.12,56.00 149.84,78.41 159.80,93.81 L 163.50 99.54 L 163.18 84.02 C162.93,71.48 163.25,66.61 164.88,58.68 C167.84,44.22 172.00,37.03 175.99,39.49 C177.48,40.41 177.22,44.68 175.47,48.06 C170.83,57.02 166.78,72.58 165.59,85.95 C165.08,91.75 166.44,105.67 167.98,110.25 ZM 202.03 272.00 C201.53,272.00 200.98,273.69 200.81,275.75 C200.49,279.46 200.48,279.44 199.69,274.50 C197.89,263.17 197.84,263.00 195.89,263.00 C194.22,263.00 193.98,263.89 193.81,270.75 C193.62,278.48 193.61,278.48 193.26,272.21 C192.94,266.60 192.63,265.81 190.45,264.98 C187.87,264.00 187.13,262.09 189.25,261.87 C189.94,261.80 192.86,261.64 195.75,261.52 L 201.00 261.31 L 201.00 264.91 C201.00,267.44 201.60,268.89 203.00,269.77 C204.46,270.68 204.98,272.04 204.91,274.76 L 204.82 278.50 L 203.88 275.25 C203.37,273.46 202.53,272.00 202.03,272.00 ZM 254.73 277.00 C251.78,279.32 251.37,279.40 250.41,277.85 C250.01,277.21 250.44,276.15 251.35,275.49 C253.95,273.59 253.16,265.00 250.38,265.00 C248.25,265.00 248.76,263.62 251.32,262.43 C253.05,261.63 253.92,261.69 254.85,262.68 C255.59,263.47 255.66,264.00 255.04,264.00 C254.45,264.00 254.00,266.36 254.00,269.50 C254.00,273.92 254.32,275.00 255.63,275.00 C256.85,275.00 256.61,275.52 254.73,277.00 ZM 231.00 283.00 C231.00,282.50 230.64,282.09 230.16,282.01 C230.23,282.00 230.31,282.00 230.38,282.00 C231.14,282.00 232.01,281.08 232.30,279.95 C232.70,278.42 232.21,277.65 230.42,276.97 C226.58,275.51 227.51,270.00 231.61,270.00 C233.80,270.00 234.00,270.41 234.00,274.78 C234.00,277.48 233.32,280.52 232.44,281.78 C231.92,282.52 231.38,283.09 230.88,283.47 C230.96,283.33 231.00,283.17 231.00,283.00 ZM 110.67 274.84 C112.11,275.64 111.90,276.00 109.23,277.38 C105.74,279.19 103.39,277.65 106.35,275.49 C107.52,274.63 108.00,272.76 108.00,269.07 C108.00,264.32 107.83,263.92 106.00,264.50 C104.85,264.86 104.00,264.68 104.00,264.07 C104.00,263.48 104.86,263.00 105.92,263.00 C106.97,263.00 108.02,262.44 108.25,261.76 C108.54,260.87 109.15,261.01 110.40,262.26 C111.91,263.77 111.94,264.00 110.57,264.00 C108.25,264.00 108.34,273.53 110.67,274.84 ZM 97.00 275.50 C97.00,278.52 96.78,281.00 96.50,281.00 C96.22,281.00 96.00,280.05 96.00,278.88 C96.00,277.27 95.53,276.89 94.03,277.28 C92.70,277.63 91.88,277.19 91.47,275.90 C90.46,272.72 91.89,270.00 94.57,270.00 C96.85,270.00 97.00,270.34 97.00,275.50 ZM 239.03 272.00 C238.53,272.00 237.96,273.69 237.77,275.75 C237.25,281.30 236.11,277.71 235.78,269.50 C235.62,265.43 235.92,262.40 236.50,262.25 C237.05,262.11 237.54,263.36 237.60,265.03 C237.65,266.70 238.41,268.61 239.29,269.28 C240.16,269.95 241.12,272.30 241.43,274.50 C241.96,278.41 241.95,278.43 240.96,275.25 C240.40,273.46 239.53,272.00 239.03,272.00 ZM 287.51 274.75 C286.45,279.31 285.00,278.80 285.00,273.87 L 285.00 269.74 L 288.67 270.33 C292.64,270.98 294.04,272.37 293.85,275.50 C293.74,277.22 293.67,277.19 293.29,275.25 C293.06,274.01 292.47,273.00 292.00,273.00 C291.52,273.00 290.79,274.01 290.37,275.25 C289.65,277.39 289.58,277.35 288.94,274.50 L 288.27 271.50 ZM 30.95 267.50 C30.90,269.15 30.47,271.40 30.00,272.50 C29.30,274.12 29.13,273.81 29.07,270.88 C28.94,264.03 30.02,261.00 32.59,261.00 C35.74,261.00 37.58,264.44 36.12,267.63 C35.06,269.95 32.00,270.97 32.00,269.00 C32.00,268.45 32.67,268.00 33.50,268.00 C35.26,268.00 35.58,263.48 33.89,262.43 C32.40,261.51 31.05,263.83 30.95,267.50 ZM 147.76 277.17 C144.20,279.43 142.41,276.01 145.75,273.30 C147.33,272.02 147.19,271.92 144.25,272.27 C142.46,272.48 141.00,272.30 141.00,271.86 C141.00,270.64 145.00,268.79 146.44,269.34 C148.29,270.05 149.33,276.17 147.76,277.17 ZM 76.11 278.09 C77.25,278.81 77.21,278.97 75.92,278.98 C74.87,278.99 74.02,277.57 73.38,274.75 C71.81,267.72 73.24,265.10 76.73,268.59 C77.80,269.66 77.97,270.40 77.24,270.85 C75.36,272.01 74.57,277.11 76.11,278.09 ZM 69.42 277.39 C68.55,277.73 67.42,278.00 66.92,278.00 C65.34,278.00 65.92,274.78 67.75,273.39 C69.37,272.16 69.33,272.06 67.25,272.03 C64.59,271.99 64.27,270.49 66.72,269.55 C67.80,269.14 68.92,269.54 69.72,270.64 C71.49,273.05 71.32,276.66 69.42,277.39 ZM 271.00 269.99 C271.00,271.14 267.41,271.87 266.00,271.00 C265.13,270.47 265.10,270.05 265.89,269.57 C266.50,269.19 267.01,267.67 267.02,266.19 C267.04,262.46 268.43,260.57 270.55,261.38 C272.10,261.98 272.13,262.20 270.79,263.28 C268.48,265.15 267.80,267.99 269.52,268.64 C270.33,268.96 271.00,269.56 271.00,269.99 ZM 305.17 275.36 C305.56,278.68 304.81,280.12 303.66,278.25 C303.18,277.47 302.72,271.79 302.90,268.75 C303.02,266.63 304.63,266.49 306.59,268.44 C307.84,269.70 307.82,270.00 306.39,270.80 C305.19,271.47 304.86,272.71 305.17,275.36 ZM 153.17 275.36 C153.56,278.68 152.81,280.12 151.66,278.25 C151.18,277.47 150.72,271.79 150.90,268.75 C151.02,266.63 152.63,266.49 154.59,268.44 C155.84,269.70 155.82,270.00 154.39,270.80 C153.19,271.47 152.86,272.71 153.17,275.36 ZM 218.36 275.51 C217.63,277.40 213.39,277.46 212.68,275.60 C212.04,273.95 212.92,270.00 213.93,270.00 C215.56,270.00 218.89,274.13 218.36,275.51 ZM 135.67 275.42 C135.06,277.01 131.91,277.58 130.67,276.33 C129.60,275.26 129.90,271.18 131.10,270.44 C132.69,269.46 136.40,273.51 135.67,275.42 ZM 299.82 277.13 C296.23,279.41 294.34,275.98 297.75,273.39 C299.36,272.17 299.32,272.06 297.17,272.03 C295.75,272.01 295.00,271.51 295.25,270.75 C295.48,270.06 296.50,269.50 297.52,269.50 C299.92,269.50 301.84,275.85 299.82,277.13 ZM 43.69 275.37 C43.34,276.28 41.95,277.00 40.53,277.00 C38.40,277.00 38.00,276.54 38.00,274.06 C38.00,270.26 38.99,269.73 41.93,271.95 C43.46,273.10 44.09,274.33 43.69,275.37 ZM 87.03 272.00 C86.49,272.00 85.63,273.46 85.12,275.25 C84.60,277.04 84.09,277.83 83.98,277.00 C83.25,271.61 83.08,269.00 83.45,269.00 C86.14,269.00 88.82,271.29 89.20,273.93 C89.45,275.62 89.28,277.00 88.83,277.00 C88.37,277.00 88.00,275.88 88.00,274.50 C88.00,273.12 87.56,272.00 87.03,272.00 ZM 51.50 269.83 C51.50,274.32 51.16,277.99 50.75,277.99 C50.34,278.00 49.99,275.19 49.99,271.75 C49.98,268.31 49.69,264.43 49.33,263.12 C48.86,261.34 49.05,260.85 50.10,261.21 C51.15,261.56 51.50,263.73 51.50,269.83 ZM 180.64 276.49 C179.73,278.87 176.00,278.25 176.00,275.71 C176.00,275.19 176.69,275.32 177.52,276.02 C178.36,276.72 179.37,276.97 179.76,276.57 C180.15,276.18 179.37,275.04 178.03,274.03 C175.96,272.46 175.79,271.96 176.92,270.59 C178.35,268.87 181.00,268.43 181.00,269.92 C181.00,270.42 180.44,271.02 179.75,271.25 C178.77,271.58 178.80,272.04 179.86,273.32 C180.61,274.23 180.96,275.66 180.64,276.49 ZM 277.00 274.50 C277.00,276.45 276.49,277.00 274.67,277.00 C270.72,277.00 269.87,274.83 272.51,271.44 C273.96,269.59 274.02,269.63 273.76,272.40 C273.60,274.17 274.04,275.48 274.90,275.78 C275.91,276.13 276.15,275.68 275.75,274.13 C275.44,272.96 275.60,272.00 276.09,272.00 C276.59,272.00 277.00,273.12 277.00,274.50 ZM 59.88 277.25 C59.95,277.66 59.55,278.00 59.00,278.00 C58.45,278.00 58.00,276.04 58.00,273.64 C58.00,269.53 58.14,269.30 60.50,269.76 C61.88,270.02 63.00,270.84 63.00,271.59 C63.00,272.38 62.38,272.70 61.50,272.36 C60.15,271.84 59.39,274.14 59.88,277.25 ZM 115.88 277.25 C115.95,277.66 115.55,278.00 115.00,278.00 C114.45,278.00 114.00,276.04 114.00,273.64 C114.00,269.53 114.14,269.30 116.50,269.76 C117.88,270.02 119.00,270.84 119.00,271.59 C119.00,272.38 118.38,272.70 117.50,272.36 C116.15,271.84 115.39,274.14 115.88,277.25 ZM 123.88 277.25 C123.95,277.66 123.55,278.00 123.00,278.00 C122.45,278.00 122.00,276.04 122.00,273.64 C122.00,269.53 122.14,269.30 124.50,269.76 C125.88,270.02 127.00,270.84 127.00,271.59 C127.00,272.38 126.38,272.70 125.50,272.36 C124.15,271.84 123.39,274.14 123.88,277.25 ZM 140.59 273.72 C141.57,278.59 139.34,278.43 137.66,273.52 C136.14,269.04 136.78,266.83 138.88,269.36 C139.49,270.09 140.26,272.06 140.59,273.72 ZM 47.18 271.50 C47.14,272.77 47.07,273.80 46.99,274.61 C46.91,273.69 46.49,273.19 46.00,273.50 C45.87,273.58 45.74,273.70 45.62,273.84 C45.51,272.58 45.43,270.94 45.43,268.98 C45.41,263.83 45.78,261.09 46.45,261.32 C47.03,261.51 47.47,262.64 47.43,263.83 C47.39,265.02 47.28,268.48 47.18,271.50 ZM 225.61 273.50 C226.67,276.35 226.59,276.51 223.98,276.70 C222.47,276.81 220.96,276.62 220.62,276.28 C219.61,275.27 219.92,271.00 221.00,271.00 C221.99,271.00 222.38,272.36 222.07,274.75 C221.99,275.44 222.35,276.00 222.89,276.00 C223.43,276.00 224.01,274.76 224.19,273.25 L 224.51 270.50 ZM 318.50 274.58 C318.50,276.97 314.26,277.84 313.41,275.63 C312.57,273.44 313.29,270.74 314.85,270.21 C315.83,269.89 316.02,270.35 315.54,271.87 C314.77,274.29 315.67,276.32 317.12,275.43 C317.72,275.05 317.60,274.22 316.80,273.25 C315.71,271.93 315.75,271.76 317.00,272.17 C317.83,272.44 318.50,273.53 318.50,274.58 ZM 166.50 274.58 C166.50,276.97 162.26,277.84 161.41,275.63 C160.57,273.44 161.29,270.74 162.85,270.21 C163.83,269.89 164.02,270.35 163.54,271.87 C162.77,274.29 163.67,276.32 165.12,275.43 C165.72,275.05 165.60,274.22 164.80,273.25 C163.71,271.93 163.75,271.76 165.00,272.17 C165.82,272.44 166.50,273.53 166.50,274.58 ZM 261.95 272.00 C261.46,272.00 260.66,273.46 260.19,275.25 L 259.31 278.50 L 258.87 274.18 C258.63,271.80 258.67,269.71 258.97,269.54 C260.31,268.77 263.99,271.12 263.92,272.72 C263.87,273.77 263.63,273.98 263.34,273.25 C263.06,272.56 262.43,272.00 261.95,272.00 ZM 323.95 272.00 C323.46,272.00 322.66,273.46 322.19,275.25 L 321.31 278.50 L 320.87 274.18 C320.63,271.80 320.67,269.71 320.97,269.54 C322.31,268.77 325.99,271.12 325.92,272.72 C325.87,273.77 325.63,273.98 325.34,273.25 C325.06,272.56 324.43,272.00 323.95,272.00 ZM 171.95 272.00 C171.46,272.00 170.66,273.46 170.19,275.25 L 169.31 278.50 L 168.87 274.18 C168.63,271.80 168.67,269.71 168.97,269.54 C170.31,268.77 173.99,271.12 173.92,272.72 C173.87,273.77 173.63,273.98 173.34,273.25 C173.06,272.56 172.43,272.00 171.95,272.00 ZM 281.81 274.75 C280.61,279.25 279.11,278.82 279.18,274.00 C279.24,269.95 279.62,269.44 281.58,270.77 C282.30,271.25 282.37,272.61 281.81,274.75 ZM 209.00 275.56 C209.00,276.90 208.55,278.00 208.00,278.00 C207.45,278.00 207.00,276.20 207.00,274.00 C207.00,269.91 207.48,269.38 209.86,270.89 C210.80,271.49 210.88,271.96 210.11,272.43 C209.50,272.81 209.00,274.22 209.00,275.56 ZM 158.85 274.00 C158.83,276.75 158.72,279.00 158.61,279.00 C158.06,279.00 156.43,271.20 156.77,270.19 C157.73,267.31 158.88,269.42 158.85,274.00 ZM 310.50 269.17 C310.84,269.51 310.98,271.96 310.81,274.62 L 310.50 279.46 L 309.40 275.29 C308.40,271.45 309.06,267.73 310.50,269.17 ZM 80.56 269.23 C80.87,269.53 80.98,271.97 80.81,274.64 L 80.50 279.50 L 79.75 274.59 C79.03,269.92 79.32,267.99 80.56,269.23 ZM 55.33 272.25 C54.46,276.81 54.00,276.95 54.00,272.67 C54.00,270.65 54.44,269.00 54.97,269.00 C55.54,269.00 55.69,270.38 55.33,272.25 ZM 132.64 275.31 C132.99,275.66 133.65,275.72 134.10,275.44 C135.10,274.82 134.12,272.00 132.89,272.00 C131.87,272.00 131.69,274.35 132.64,275.31 ZM 214.50 275.00 C214.98,275.78 215.56,275.84 216.23,275.17 C216.78,274.62 216.90,273.65 216.50,273.00 C216.02,272.22 215.44,272.16 214.77,272.83 C214.22,273.38 214.10,274.35 214.50,275.00 ZM 55.50 265.00 C55.90,265.65 55.78,266.62 55.23,267.17 C54.56,267.84 53.98,267.78 53.50,267.00 C53.10,266.35 53.22,265.38 53.77,264.83 C54.44,264.16 55.02,264.22 55.50,265.00 ZM 230.45 274.91 C231.48,276.59 232.00,276.21 232.00,273.80 C232.00,272.18 231.70,271.90 230.89,272.71 C230.28,273.32 230.08,274.31 230.45,274.91 ZM 158.20 264.80 C159.13,265.73 159.13,266.27 158.20,267.20 C157.27,268.13 157.00,267.87 157.00,266.00 C157.00,264.13 157.27,263.87 158.20,264.80 ZM 40.00 273.44 C40.00,274.30 40.45,275.00 41.00,275.00 C41.55,275.00 42.00,274.58 42.00,274.06 C42.00,273.54 41.55,272.84 41.00,272.50 C40.45,272.16 40.00,272.58 40.00,273.44 ZM 311.00 265.94 C311.00,266.46 310.55,267.16 310.00,267.50 C309.45,267.84 309.00,267.42 309.00,266.56 C309.00,265.70 309.45,265.00 310.00,265.00 C310.55,265.00 311.00,265.42 311.00,265.94 ZM 81.00 266.00 C81.00,266.55 80.55,267.00 80.00,267.00 C79.45,267.00 79.00,266.55 79.00,266.00 C79.00,265.45 79.45,265.00 80.00,265.00 C80.55,265.00 81.00,265.45 81.00,266.00 ZM 229.00 283.00 C229.00,283.48 229.35,283.89 229.80,283.98 C229.32,284.03 229.00,283.72 229.00,283.00 ZM 46.30 276.91 C46.44,276.82 46.56,276.66 46.67,276.46 C46.55,276.85 46.42,276.99 46.30,276.91 Z" fill="rgb(104,39,110)"/>
<path d="M 127.02 154.08 C120.17,158.13 118.91,158.52 112.02,158.75 C102.14,159.07 91.69,155.95 74.50,147.54 C61.04,140.96 50.80,133.23 48.89,128.20 C45.64,119.67 60.67,107.17 80.22,102.14 C99.50,97.17 117.50,96.63 135.73,100.49 C147.09,102.89 157.07,105.85 161.75,108.20 C166.97,110.84 163.43,120.55 152.66,133.15 C145.42,141.60 138.29,147.43 127.02,154.08 ZM 189.38 246.75 C187.37,253.39 186.50,255.00 184.94,255.00 C182.37,255.00 182.43,253.77 186.02,234.50 C187.65,225.70 188.99,216.84 189.00,214.82 C189.00,210.76 191.08,208.00 194.14,208.00 C195.23,208.00 196.91,207.58 197.87,207.07 C198.83,206.56 200.21,206.51 200.95,206.97 C202.06,207.66 202.02,208.50 200.67,211.86 C199.07,215.88 199.09,216.02 202.63,225.21 C204.61,230.32 207.15,236.30 208.29,238.50 L 210.36 242.50 L 211.69 238.00 C212.42,235.52 213.27,229.68 213.58,225.00 C214.54,210.27 216.88,203.00 220.65,203.00 C222.32,203.00 222.31,204.07 220.51,221.73 C218.21,244.34 215.54,252.00 209.94,252.00 C207.43,252.00 203.92,247.07 199.46,237.24 C196.19,230.02 195.56,229.20 194.50,230.74 C193.84,231.71 192.98,233.85 192.59,235.50 C192.19,237.15 190.75,242.21 189.38,246.75 Z" fill="rgb(227,70,34)"/>
<path d="M 0.00 165.00 L 0.00 0.00 L 180.00 0.00 L 360.00 0.00 L 360.00 165.00 L 360.00 330.00 L 180.00 330.00 L 0.00 330.00 L 0.00 165.00 ZM 232.44 281.78 C233.32,280.52 234.00,277.48 234.00,274.78 C234.00,270.41 233.80,270.00 231.61,270.00 C227.51,270.00 226.58,275.51 230.42,276.97 C232.21,277.65 232.70,278.42 232.30,279.95 C232.01,281.08 231.14,282.00 230.38,282.00 C229.62,282.00 229.00,282.45 229.00,283.00 C229.00,284.73 230.83,284.09 232.44,281.78 ZM 97.00 275.50 C97.00,270.34 96.85,270.00 94.57,270.00 C91.89,270.00 90.46,272.72 91.47,275.90 C91.88,277.19 92.70,277.63 94.03,277.28 C95.53,276.89 96.00,277.27 96.00,278.88 C96.00,280.05 96.22,281.00 96.50,281.00 C96.78,281.00 97.00,278.52 97.00,275.50 ZM 76.11 278.09 C74.57,277.11 75.36,272.01 77.24,270.85 C77.97,270.40 77.80,269.66 76.73,268.59 C73.24,265.10 71.81,267.72 73.38,274.75 C74.02,277.57 74.87,278.99 75.92,278.98 C77.21,278.97 77.25,278.81 76.11,278.09 ZM 80.56 269.23 C79.32,267.99 79.03,269.92 79.75,274.59 L 80.50 279.50 L 80.81 274.64 C80.98,271.97 80.87,269.53 80.56,269.23 ZM 110.67 274.84 C108.34,273.53 108.25,264.00 110.57,264.00 C111.94,264.00 111.91,263.77 110.40,262.26 C109.15,261.01 108.54,260.87 108.25,261.76 C108.02,262.44 106.97,263.00 105.92,263.00 C104.86,263.00 104.00,263.48 104.00,264.07 C104.00,264.68 104.85,264.86 106.00,264.50 C107.83,263.92 108.00,264.32 108.00,269.07 C108.00,272.76 107.52,274.63 106.35,275.49 C103.39,277.65 105.74,279.19 109.23,277.38 C111.90,276.00 112.11,275.64 110.67,274.84 ZM 153.17 275.36 C152.86,272.71 153.19,271.47 154.39,270.80 C155.82,270.00 155.84,269.70 154.59,268.44 C152.63,266.49 151.02,266.63 150.90,268.75 C150.72,271.79 151.18,277.47 151.66,278.25 C152.81,280.12 153.56,278.68 153.17,275.36 ZM 158.85 274.00 C158.88,269.42 157.73,267.31 156.77,270.19 C156.43,271.20 158.06,279.00 158.61,279.00 C158.72,279.00 158.83,276.75 158.85,274.00 ZM 202.03 272.00 C202.53,272.00 203.37,273.46 203.88,275.25 L 204.82 278.50 L 204.91 274.76 C204.98,272.04 204.46,270.68 203.00,269.77 C201.60,268.89 201.00,267.44 201.00,264.91 L 201.00 261.31 L 195.75 261.52 C192.86,261.64 189.94,261.80 189.25,261.87 C187.13,262.09 187.87,264.00 190.45,264.98 C192.63,265.81 192.94,266.60 193.26,272.21 C193.61,278.48 193.62,278.48 193.81,270.75 C193.98,263.89 194.22,263.00 195.89,263.00 C197.84,263.00 197.89,263.17 199.69,274.50 C200.48,279.44 200.49,279.46 200.81,275.75 C200.98,273.69 201.53,272.00 202.03,272.00 ZM 239.03 272.00 C239.53,272.00 240.40,273.46 240.96,275.25 C241.95,278.43 241.96,278.41 241.43,274.50 C241.12,272.30 240.16,269.95 239.29,269.28 C238.41,268.61 237.65,266.70 237.60,265.03 C237.54,263.36 237.05,262.11 236.50,262.25 C235.92,262.40 235.62,265.43 235.78,269.50 C236.11,277.71 237.25,281.30 237.77,275.75 C237.96,273.69 238.53,272.00 239.03,272.00 ZM 254.73 277.00 C256.61,275.52 256.85,275.00 255.63,275.00 C254.32,275.00 254.00,273.92 254.00,269.50 C254.00,266.36 254.45,264.00 255.04,264.00 C255.66,264.00 255.59,263.47 254.85,262.68 C253.92,261.69 253.05,261.63 251.32,262.43 C248.76,263.62 248.25,265.00 250.38,265.00 C253.16,265.00 253.95,273.59 251.35,275.49 C250.44,276.15 250.01,277.21 250.41,277.85 C251.37,279.40 251.78,279.32 254.73,277.00 ZM 305.17 275.36 C304.86,272.71 305.19,271.47 306.39,270.80 C307.82,270.00 307.84,269.70 306.59,268.44 C304.63,266.49 303.02,266.63 302.90,268.75 C302.72,271.79 303.18,277.47 303.66,278.25 C304.81,280.12 305.56,278.68 305.17,275.36 ZM 310.50 269.17 C309.06,267.73 308.40,271.45 309.40,275.29 L 310.50 279.46 L 310.81 274.62 C310.98,271.96 310.84,269.51 310.50,269.17 ZM 51.50 269.83 C51.50,263.73 51.15,261.56 50.10,261.21 C49.05,260.85 48.86,261.34 49.33,263.12 C49.69,264.43 49.98,268.31 49.99,271.75 C49.99,275.19 50.34,278.00 50.75,277.99 C51.16,277.99 51.50,274.32 51.50,269.83 ZM 59.88 277.25 C59.39,274.14 60.15,271.84 61.50,272.36 C62.38,272.70 63.00,272.38 63.00,271.59 C63.00,270.84 61.88,270.02 60.50,269.76 C58.14,269.30 58.00,269.53 58.00,273.64 C58.00,276.04 58.45,278.00 59.00,278.00 C59.55,278.00 59.95,277.66 59.88,277.25 ZM 69.42 277.39 C71.32,276.66 71.49,273.05 69.72,270.64 C68.92,269.54 67.80,269.14 66.72,269.55 C64.27,270.49 64.59,271.99 67.25,272.03 C69.33,272.06 69.37,272.16 67.75,273.39 C65.92,274.78 65.34,278.00 66.92,278.00 C67.42,278.00 68.55,277.73 69.42,277.39 ZM 87.03 272.00 C87.56,272.00 88.00,273.12 88.00,274.50 C88.00,275.88 88.37,277.00 88.83,277.00 C89.28,277.00 89.45,275.62 89.20,273.93 C88.82,271.29 86.14,269.00 83.45,269.00 C83.08,269.00 83.25,271.61 83.98,277.00 C84.09,277.83 84.60,277.04 85.12,275.25 C85.63,273.46 86.49,272.00 87.03,272.00 ZM 115.88 277.25 C115.39,274.14 116.15,271.84 117.50,272.36 C118.38,272.70 119.00,272.38 119.00,271.59 C119.00,270.84 117.88,270.02 116.50,269.76 C114.14,269.30 114.00,269.53 114.00,273.64 C114.00,276.04 114.45,278.00 115.00,278.00 C115.55,278.00 115.95,277.66 115.88,277.25 ZM 123.88 277.25 C123.39,274.14 124.15,271.84 125.50,272.36 C126.38,272.70 127.00,272.38 127.00,271.59 C127.00,270.84 125.88,270.02 124.50,269.76 C122.14,269.30 122.00,269.53 122.00,273.64 C122.00,276.04 122.45,278.00 123.00,278.00 C123.55,278.00 123.95,277.66 123.88,277.25 ZM 140.59 273.72 C140.26,272.06 139.49,270.09 138.88,269.36 C136.78,266.83 136.14,269.04 137.66,273.52 C139.34,278.43 141.57,278.59 140.59,273.72 ZM 147.76 277.17 C149.33,276.17 148.29,270.05 146.44,269.34 C145.00,268.79 141.00,270.64 141.00,271.86 C141.00,272.30 142.46,272.48 144.25,272.27 C147.19,271.92 147.33,272.02 145.75,273.30 C142.41,276.01 144.20,279.43 147.76,277.17 ZM 171.95 272.00 C172.43,272.00 173.06,272.56 173.34,273.25 C173.63,273.98 173.87,273.77 173.92,272.72 C173.99,271.12 170.31,268.77 168.97,269.54 C168.67,269.71 168.63,271.80 168.87,274.18 L 169.31 278.50 L 170.19 275.25 C170.66,273.46 171.46,272.00 171.95,272.00 ZM 180.64 276.49 C180.96,275.66 180.61,274.23 179.86,273.32 C178.80,272.04 178.77,271.58 179.75,271.25 C180.44,271.02 181.00,270.42 181.00,269.92 C181.00,268.43 178.35,268.87 176.92,270.59 C175.79,271.96 175.96,272.46 178.03,274.03 C179.37,275.04 180.15,276.18 179.76,276.57 C179.37,276.97 178.36,276.72 177.52,276.02 C176.69,275.32 176.00,275.19 176.00,275.71 C176.00,278.25 179.73,278.87 180.64,276.49 ZM 209.00 275.56 C209.00,274.22 209.50,272.81 210.11,272.43 C210.88,271.96 210.80,271.49 209.86,270.89 C207.48,269.38 207.00,269.91 207.00,274.00 C207.00,276.20 207.45,278.00 208.00,278.00 C208.55,278.00 209.00,276.90 209.00,275.56 ZM 261.95 272.00 C262.43,272.00 263.06,272.56 263.34,273.25 C263.63,273.98 263.87,273.77 263.92,272.72 C263.99,271.12 260.31,268.77 258.97,269.54 C258.67,269.71 258.63,271.80 258.87,274.18 L 259.31 278.50 L 260.19 275.25 C260.66,273.46 261.46,272.00 261.95,272.00 ZM 281.81 274.75 C282.37,272.61 282.30,271.25 281.58,270.77 C279.62,269.44 279.24,269.95 279.18,274.00 C279.11,278.82 280.61,279.25 281.81,274.75 ZM 287.51 274.75 L 288.27 271.50 L 288.94 274.50 C289.58,277.35 289.65,277.39 290.37,275.25 C290.79,274.01 291.52,273.00 292.00,273.00 C292.47,273.00 293.06,274.01 293.29,275.25 C293.67,277.19 293.74,277.22 293.85,275.50 C294.04,272.37 292.64,270.98 288.67,270.33 L 285.00 269.74 L 285.00 273.87 C285.00,278.80 286.45,279.31 287.51,274.75 ZM 299.82 277.13 C301.84,275.85 299.92,269.50 297.52,269.50 C296.50,269.50 295.48,270.06 295.25,270.75 C295.00,271.51 295.75,272.01 297.17,272.03 C299.32,272.06 299.36,272.17 297.75,273.39 C294.34,275.98 296.23,279.41 299.82,277.13 ZM 323.95 272.00 C324.43,272.00 325.06,272.56 325.34,273.25 C325.63,273.98 325.87,273.77 325.92,272.72 C325.99,271.12 322.31,268.77 320.97,269.54 C320.67,269.71 320.63,271.80 320.87,274.18 L 321.31 278.50 L 322.19 275.25 C322.66,273.46 323.46,272.00 323.95,272.00 ZM 43.69 275.37 C44.09,274.33 43.46,273.10 41.93,271.95 C38.99,269.73 38.00,270.26 38.00,274.06 C38.00,276.54 38.40,277.00 40.53,277.00 C41.95,277.00 43.34,276.28 43.69,275.37 ZM 47.18 271.50 C47.28,268.48 47.39,265.02 47.43,263.83 C47.47,262.64 47.03,261.51 46.45,261.32 C45.78,261.09 45.41,263.83 45.43,268.98 C45.46,277.97 46.90,280.05 47.18,271.50 ZM 135.67 275.42 C136.40,273.51 132.69,269.46 131.10,270.44 C129.90,271.18 129.60,275.26 130.67,276.33 C131.91,277.58 135.06,277.01 135.67,275.42 ZM 166.50 274.58 C166.50,273.53 165.82,272.44 165.00,272.17 C163.75,271.76 163.71,271.93 164.80,273.25 C165.60,274.22 165.72,275.05 165.12,275.43 C163.67,276.32 162.77,274.29 163.54,271.87 C164.02,270.35 163.83,269.89 162.85,270.21 C161.29,270.74 160.57,273.44 161.41,275.63 C162.26,277.84 166.50,276.97 166.50,274.58 ZM 218.36 275.51 C218.89,274.13 215.56,270.00 213.93,270.00 C212.92,270.00 212.04,273.95 212.68,275.60 C213.39,277.46 217.63,277.40 218.36,275.51 ZM 225.61 273.50 L 224.51 270.50 L 224.19 273.25 C224.01,274.76 223.43,276.00 222.89,276.00 C222.35,276.00 221.99,275.44 222.07,274.75 C222.38,272.36 221.99,271.00 221.00,271.00 C219.92,271.00 219.61,275.27 220.62,276.28 C220.96,276.62 222.47,276.81 223.98,276.70 C226.59,276.51 226.67,276.35 225.61,273.50 ZM 277.00 274.50 C277.00,273.12 276.59,272.00 276.09,272.00 C275.60,272.00 275.44,272.96 275.75,274.13 C276.15,275.68 275.91,276.13 274.90,275.78 C274.04,275.48 273.60,274.17 273.76,272.40 C274.02,269.63 273.96,269.59 272.51,271.44 C269.87,274.83 270.72,277.00 274.67,277.00 C276.49,277.00 277.00,276.45 277.00,274.50 ZM 318.50 274.58 C318.50,273.53 317.83,272.44 317.00,272.17 C315.75,271.76 315.71,271.93 316.80,273.25 C317.60,274.22 317.72,275.05 317.12,275.43 C315.67,276.32 314.77,274.29 315.54,271.87 C316.02,270.35 315.83,269.89 314.85,270.21 C313.29,270.74 312.57,273.44 313.41,275.63 C314.26,277.84 318.50,276.97 318.50,274.58 ZM 55.33 272.25 C55.69,270.38 55.54,269.00 54.97,269.00 C54.44,269.00 54.00,270.65 54.00,272.67 C54.00,276.95 54.46,276.81 55.33,272.25 ZM 30.95 267.50 C31.05,263.83 32.40,261.51 33.89,262.43 C35.58,263.48 35.26,268.00 33.50,268.00 C32.67,268.00 32.00,268.45 32.00,269.00 C32.00,270.97 35.06,269.95 36.12,267.63 C37.58,264.44 35.74,261.00 32.59,261.00 C30.02,261.00 28.94,264.03 29.07,270.88 C29.13,273.81 29.30,274.12 30.00,272.50 C30.47,271.40 30.90,269.15 30.95,267.50 ZM 271.00 269.99 C271.00,269.56 270.33,268.96 269.52,268.64 C267.80,267.99 268.48,265.15 270.79,263.28 C272.13,262.20 272.10,261.98 270.55,261.38 C268.43,260.57 267.04,262.46 267.02,266.19 C267.01,267.67 266.50,269.19 265.89,269.57 C265.10,270.05 265.13,270.47 266.00,271.00 C267.41,271.87 271.00,271.14 271.00,269.99 ZM 55.50 265.00 C55.02,264.22 54.44,264.16 53.77,264.83 C53.22,265.38 53.10,266.35 53.50,267.00 C53.98,267.78 54.56,267.84 55.23,267.17 C55.78,266.62 55.90,265.65 55.50,265.00 ZM 158.20 264.80 C157.27,263.87 157.00,264.13 157.00,266.00 C157.00,267.87 157.27,268.13 158.20,267.20 C159.13,266.27 159.13,265.73 158.20,264.80 ZM 311.00 265.94 C311.00,265.42 310.55,265.00 310.00,265.00 C309.45,265.00 309.00,265.70 309.00,266.56 C309.00,267.42 309.45,267.84 310.00,267.50 C310.55,267.16 311.00,266.46 311.00,265.94 ZM 81.00 266.00 C81.00,265.45 80.55,265.00 80.00,265.00 C79.45,265.00 79.00,265.45 79.00,266.00 C79.00,266.55 79.45,267.00 80.00,267.00 C80.55,267.00 81.00,266.55 81.00,266.00 ZM 298.29 260.58 C301.03,258.50 306.62,236.62 305.06,234.10 C303.53,231.63 298.52,233.80 295.04,238.45 C288.95,246.57 283.40,247.86 280.22,241.90 C275.99,233.99 286.22,211.00 293.96,211.00 C296.10,211.00 299.99,215.43 300.02,217.88 C300.06,222.48 305.72,223.27 308.00,219.00 C310.31,214.68 302.59,205.00 296.83,205.00 C289.91,205.00 279.74,212.63 275.50,220.99 C270.26,231.34 269.86,244.95 274.65,249.75 C276.81,251.90 277.81,252.18 282.05,251.77 C285.01,251.48 288.50,250.27 290.87,248.71 C293.02,247.28 294.99,246.33 295.25,246.59 C295.51,246.84 295.35,248.95 294.90,251.28 C293.04,260.92 294.08,263.77 298.29,260.58 ZM 189.38 246.75 C190.75,242.21 192.19,237.15 192.59,235.50 C192.98,233.85 193.84,231.71 194.50,230.74 C195.56,229.20 196.19,230.02 199.46,237.24 C203.92,247.07 207.43,252.00 209.94,252.00 C215.54,252.00 218.21,244.34 220.51,221.73 C222.31,204.07 222.32,203.00 220.65,203.00 C216.88,203.00 214.54,210.27 213.58,225.00 C213.27,229.68 212.42,235.52 211.69,238.00 L 210.36 242.50 L 208.29 238.50 C207.15,236.30 204.61,230.32 202.63,225.21 C199.09,216.02 199.07,215.88 200.67,211.86 C202.02,208.50 202.06,207.66 200.95,206.97 C200.21,206.51 198.83,206.56 197.87,207.07 C196.91,207.58 195.23,208.00 194.14,208.00 C191.08,208.00 189.00,210.76 189.00,214.82 C188.99,216.84 187.65,225.70 186.02,234.50 C182.43,253.77 182.37,255.00 184.94,255.00 C186.50,255.00 187.37,253.39 189.38,246.75 ZM 249.71 249.55 C253.31,247.11 253.32,247.11 255.79,249.05 C259.00,251.57 260.06,251.51 266.05,248.47 C270.54,246.20 270.93,245.74 269.94,243.90 C269.19,242.49 268.32,242.07 267.17,242.56 C264.05,243.91 260.24,244.20 259.59,243.14 C259.23,242.57 260.96,240.23 263.43,237.96 C268.36,233.41 269.49,231.10 268.57,227.43 C267.66,223.81 263.61,224.26 258.35,228.57 L 254.00 232.13 L 253.03 229.57 C251.07,224.42 246.36,227.64 247.30,233.47 C247.84,236.79 247.65,237.05 242.56,239.97 C237.59,242.81 233.13,243.80 231.71,242.38 C231.37,242.03 232.85,239.66 235.01,237.10 C238.84,232.56 240.27,227.87 238.64,225.22 C237.48,223.34 233.56,223.77 230.61,226.09 C227.97,228.17 224.00,234.80 224.00,237.13 C224.00,237.80 223.31,239.10 222.48,240.03 C220.81,241.87 221.45,245.00 223.49,245.00 C224.19,245.00 225.51,246.12 226.41,247.50 C227.68,249.45 228.89,250.00 231.88,250.00 C235.62,250.00 238.63,248.43 246.63,242.33 C249.49,240.15 249.82,240.09 250.43,241.68 C250.90,242.91 250.04,244.43 247.54,246.79 C245.58,248.64 244.23,250.57 244.55,251.07 C245.36,252.39 245.68,252.29 249.71,249.55 ZM 176.14 230.30 C179.98,227.31 184.79,218.20 188.10,207.63 C190.04,201.47 190.12,200.21 189.03,192.70 C187.69,183.39 182.79,160.23 180.42,152.00 C173.75,128.81 170.26,119.29 167.61,117.09 C166.46,116.14 165.55,116.99 162.65,121.71 C155.75,132.96 151.49,138.17 139.84,149.57 C133.37,155.91 127.15,162.26 126.03,163.68 C123.24,167.24 123.38,173.07 126.38,177.77 C129.28,182.32 139.45,192.01 151.65,201.84 C156.66,205.88 161.22,210.18 161.78,211.41 C162.34,212.65 163.36,217.12 164.04,221.37 C165.04,227.54 165.78,229.47 167.78,231.04 C171.04,233.61 172.01,233.52 176.14,230.30 ZM 244.78 205.44 C248.28,202.99 247.62,198.58 242.48,190.05 C240.01,185.93 238.00,181.33 238.00,179.78 C238.00,178.24 239.18,170.12 240.61,161.74 C242.48,150.83 243.10,144.23 242.79,138.50 C242.01,124.02 240.49,123.14 213.10,121.40 C198.60,120.47 190.13,119.44 184.50,117.92 C171.75,114.48 171.00,114.43 171.00,116.92 C171.00,124.96 195.84,174.43 207.63,189.87 C211.52,194.96 213.80,196.70 222.50,201.21 C233.52,206.92 240.71,208.29 244.78,205.44 ZM 127.02 154.08 C138.29,147.43 145.42,141.60 152.66,133.15 C163.43,120.55 166.97,110.84 161.75,108.20 C157.07,105.85 147.09,102.89 135.73,100.49 C117.50,96.63 99.50,97.17 80.22,102.14 C60.67,107.17 45.64,119.67 48.89,128.20 C50.80,133.23 61.04,140.96 74.50,147.54 C91.69,155.95 102.14,159.07 112.02,158.75 C118.91,158.52 120.17,158.13 127.02,154.08 ZM 219.24 117.98 C234.83,116.20 241.54,112.24 249.73,100.00 C262.50,80.90 271.74,49.79 266.39,43.87 C261.81,38.81 253.62,37.64 242.71,40.49 C223.19,45.57 203.47,59.00 187.30,78.22 C178.96,88.14 170.00,102.75 170.00,106.44 C170.00,111.99 179.64,116.98 190.43,117.02 C193.22,117.02 196.18,117.47 197.00,118.00 C198.94,119.25 208.21,119.25 219.24,117.98 ZM 167.98 110.25 C166.44,105.67 165.08,91.75 165.59,85.95 C166.78,72.58 170.83,57.02 175.47,48.06 C177.22,44.68 177.48,40.41 175.99,39.49 C172.00,37.03 167.84,44.22 164.88,58.68 C163.25,66.61 162.93,71.48 163.18,84.02 L 163.50 99.54 L 159.80 93.81 C149.84,78.41 123.12,56.00 114.71,56.00 C111.70,56.00 111.09,56.63 111.73,59.08 C112.04,60.27 114.96,62.41 119.14,64.50 C141.20,75.57 156.96,89.86 164.64,105.75 C168.26,113.26 169.57,115.02 167.98,110.25 ZM 230.45 274.91 C230.08,274.31 230.28,273.32 230.89,272.71 C231.70,271.90 232.00,272.18 232.00,273.80 C232.00,276.21 231.48,276.59 230.45,274.91 ZM 40.00 273.44 C40.00,272.58 40.45,272.16 41.00,272.50 C41.55,272.84 42.00,273.54 42.00,274.06 C42.00,274.58 41.55,275.00 41.00,275.00 C40.45,275.00 40.00,274.30 40.00,273.44 ZM 132.64 275.31 C131.69,274.35 131.87,272.00 132.89,272.00 C134.12,272.00 135.10,274.82 134.10,275.44 C133.65,275.72 132.99,275.66 132.64,275.31 ZM 214.50 275.00 C214.10,274.35 214.22,273.38 214.77,272.83 C215.44,272.16 216.02,272.22 216.50,273.00 C216.90,273.65 216.78,274.62 216.23,275.17 C215.56,275.84 214.98,275.78 214.50,275.00 ZM 255.48 236.97 C255.13,236.41 255.89,235.07 257.17,234.01 C260.61,231.14 261.43,231.59 259.00,235.00 C256.63,238.32 256.40,238.45 255.48,236.97 ZM 164.00 170.99 C161.52,170.61 160.25,170.23 161.17,170.15 C162.08,170.07 162.99,169.52 163.19,168.93 C163.39,168.33 166.58,167.67 170.27,167.45 C176.44,167.08 177.00,167.21 177.00,169.02 C177.00,170.54 176.32,171.00 174.08,171.00 C172.48,171.00 170.56,171.16 169.83,171.34 C169.10,171.53 166.48,171.38 164.00,170.99 ZM 163.75 161.97 C164.99,161.47 166.00,160.60 166.00,160.03 C166.00,159.46 168.02,159.00 170.50,159.00 C174.33,159.00 175.00,159.30 175.00,161.00 C175.00,162.81 174.35,162.99 168.25,162.94 C163.19,162.89 162.06,162.65 163.75,161.97 ZM 170.52 152.98 C171.92,151.44 172.54,151.26 173.14,152.23 C173.63,153.02 173.29,153.75 172.21,154.18 C169.15,155.39 168.65,155.04 170.52,152.98 Z" fill="rgb(253,253,253)"/>
</g>
</svg>